# xmcd
#
# Track frame offsets: 
#        150
#        28676
#        59782
#        83272
#        147808
#        174708
#        210174
#        224440
#
# Disc length: 3277 seconds
#
# Revision: 3
# Processed by: cddbd v1.5.2PL0 Copyright (c) Steve Scherf et al.
# Submitted via: ExactAudioCopy v0.95b3
#
DISCID=6c0ccb08
DTITLE=Oliver Shanti and Friends - Buddha and Bonsai Vol.5
DYEAR=2005
DGENRE=New Age
TTITLE0=Wheel Of Balance
TTITLE1=Memories Of Buddha's Love
TTITLE2=Blossoms In The Wind
TTITLE3=Infinite Compassion
TTITLE4=Mystic Passage
TTITLE5=Dew Drops Of Light
TTITLE6=Expectations
TTITLE7=After The Rain
EXTD=YEAR: 2005
EXTT0=
EXTT1=
EXTT2=
EXTT3=
EXTT4=
EXTT5=
EXTT6=
EXTT7=
PLAYORDER=
